<svg xmlns="http://www.w3.org/2000/svg" width="512" height="512" viewBox="0 0 512 512">
  <g fill="none" stroke-linecap="round" stroke-linejoin="round">
    <path d="M224 29.074 C243.802 17.641 268.198 17.641 288 29.074 L436.5 114.811 C456.302 126.244 468.5 147.372 468.5 170.237 V341.763 C468.5 364.628 456.302 385.756 436.5 397.189 L288 482.926 C268.198 494.359 243.802 494.359 224 482.926 L75.5 397.189 C55.698 385.756 43.5 364.628 43.5 341.763 V170.237 C43.5 147.372 55.698 126.244 75.5 114.811 Z" stroke="#22201c" stroke-width="20"/>
    <g stroke="#0f6e5f" stroke-width="24"><rect x="160" y="184" width="192" height="164" rx="22"/><path d="M160 228 H352"/><path d="M208 162 V204"/><path d="M304 162 V204"/><path d="M204 272 H220"/><path d="M248 272 H264"/><path d="M292 272 H308"/><path d="M204 310 H220"/><path d="M248 310 H264"/></g>
  </g>
</svg>
